<mxfile host="app.diagrams.net" modified="2022-10-25T11:39:53.754Z" agent="5.0 (Macintosh; Intel Mac OS X 10_15_7) AppleWebKit/537.36 (KHTML, like Gecko) Chrome/106.0.0.0 Safari/537.36" etag="3m5bAA0v319qhvXm21Yp" version="20.4.2" type="github" pages="2">
  <diagram id="83a54BhIRtI2mwR11kFC" name="페이지-1">
    <mxGraphModel dx="3964" dy="1905" grid="1" gridSize="10" guides="1" tooltips="1" connect="1" arrows="1" fold="1" page="1" pageScale="1" pageWidth="827" pageHeight="1169" math="0" shadow="0">
      <root>
        <mxCell id="0" />
        <mxCell id="1" parent="0" />
        <mxCell id="LjOvlFEaTuc0kCLMJehp-1" value="" style="shape=image;verticalLabelPosition=bottom;labelBackgroundColor=default;verticalAlign=top;aspect=fixed;imageAspect=0;image=https://d3i71xaburhd42.cloudfront.net/8932ae3405cf565049f9a500ed5daf5a1aabd266/2-Figure1-1.png;" parent="1" vertex="1">
          <mxGeometry x="-1630" y="840" width="390" height="210" as="geometry" />
        </mxCell>
        <mxCell id="LjOvlFEaTuc0kCLMJehp-2" value="" style="shape=image;verticalLabelPosition=bottom;labelBackgroundColor=default;verticalAlign=top;aspect=fixed;imageAspect=0;image=https://microservices.io/i/Microservice_Architecture.png;" parent="1" vertex="1">
          <mxGeometry x="-1637" y="430" width="520" height="357" as="geometry" />
        </mxCell>
        <mxCell id="LjOvlFEaTuc0kCLMJehp-3" value="" style="shape=image;verticalLabelPosition=bottom;labelBackgroundColor=default;verticalAlign=top;aspect=fixed;imageAspect=0;image=https://techdozo.dev/wp-content/uploads/2021/08/image-22-1024x465.png;" parent="1" vertex="1">
          <mxGeometry x="-1637" y="40" width="792.12" height="359.5" as="geometry" />
        </mxCell>
        <mxCell id="LjOvlFEaTuc0kCLMJehp-4" value="" style="shape=image;verticalLabelPosition=bottom;labelBackgroundColor=default;verticalAlign=top;aspect=fixed;imageAspect=0;image=https://docs.oracle.com/cd/E19575-01/821-0053/images/revprxy2.gif;" parent="1" vertex="1">
          <mxGeometry x="-1050" y="447" width="520" height="337" as="geometry" />
        </mxCell>
        <mxCell id="LjOvlFEaTuc0kCLMJehp-5" value="" style="shape=image;verticalLabelPosition=bottom;labelBackgroundColor=default;verticalAlign=top;aspect=fixed;imageAspect=0;image=https://prev.github.io/attachs/scalable-architecture1/total-architecture.png;" parent="1" vertex="1">
          <mxGeometry x="-1040" y="830" width="305.49" height="230" as="geometry" />
        </mxCell>
        <mxCell id="LjOvlFEaTuc0kCLMJehp-6" value="" style="shape=image;verticalLabelPosition=bottom;labelBackgroundColor=default;verticalAlign=top;aspect=fixed;imageAspect=0;image=https://velog.velcdn.com/images%2Fdev_shu%2Fpost%2F15d76300-a16e-42af-8a9b-f46995117201%2FA-Typical-3-Tier-Server-Architecture-Tier-1-Web-Server-Tier-2-Application-Server-Tier.png;" parent="1" vertex="1">
          <mxGeometry x="-610" y="130" width="520" height="228" as="geometry" />
        </mxCell>
        <mxCell id="LjOvlFEaTuc0kCLMJehp-7" value="" style="shape=image;verticalLabelPosition=bottom;labelBackgroundColor=default;verticalAlign=top;aspect=fixed;imageAspect=0;image=https://velog.velcdn.com/images%2Fdev_shu%2Fpost%2F47422af2-56b7-47c3-becb-70d9d29f6c59%2F%E1%84%89%E1%85%B3%E1%84%8F%E1%85%B3%E1%84%85%E1%85%B5%E1%86%AB%E1%84%89%E1%85%A3%E1%86%BA%202021-07-29%20%E1%84%8B%E1%85%A9%E1%84%92%E1%85%AE%2010.56.20.png;" parent="1" vertex="1">
          <mxGeometry x="40" y="80" width="520" height="367" as="geometry" />
        </mxCell>
        <UserObject label="https://mingrammer.com/translation-10-common-software-architectural-patterns-in-a-nutshell/" link="https://mingrammer.com/translation-10-common-software-architectural-patterns-in-a-nutshell/" id="LjOvlFEaTuc0kCLMJehp-8">
          <mxCell style="text;whiteSpace=wrap;html=1;" parent="1" vertex="1">
            <mxGeometry x="1910" y="199.75" width="530" height="40" as="geometry" />
          </mxCell>
        </UserObject>
        <mxCell id="LjOvlFEaTuc0kCLMJehp-9" value="" style="shape=image;verticalLabelPosition=bottom;labelBackgroundColor=default;verticalAlign=top;aspect=fixed;imageAspect=0;image=https://terasoluna-batch.github.io/guideline/5.0.0.RELEASE/en/images/ch02/SpringBatchArchitecture/Ch02_SpringBatchArchitecture_Architecture_LaunchFlow.png;" parent="1" vertex="1">
          <mxGeometry x="-1654" y="1190" width="520" height="429" as="geometry" />
        </mxCell>
        <mxCell id="LjOvlFEaTuc0kCLMJehp-10" value="" style="shape=image;verticalLabelPosition=bottom;labelBackgroundColor=default;verticalAlign=top;aspect=fixed;imageAspect=0;image=https://ibm-cloud-architecture.github.io/refarch-eda/technology/images/kafka-hl-view.png;" parent="1" vertex="1">
          <mxGeometry x="-1580" y="1680" width="520" height="293" as="geometry" />
        </mxCell>
        <mxCell id="LjOvlFEaTuc0kCLMJehp-11" value="" style="shape=image;verticalLabelPosition=bottom;labelBackgroundColor=default;verticalAlign=top;aspect=fixed;imageAspect=0;image=https://spring.io/images/diagram-microservices-dark-4a2e5817aac093437f4f3b3a5be8be88.svg;" parent="1" vertex="1">
          <mxGeometry x="-810" y="1200" width="371.2" height="240" as="geometry" />
        </mxCell>
        <mxCell id="LjOvlFEaTuc0kCLMJehp-12" value="" style="shape=image;verticalLabelPosition=bottom;labelBackgroundColor=default;verticalAlign=top;aspect=fixed;imageAspect=0;image=https://velog.velcdn.com/images/hklog/post/2f792897-dcee-4ace-bcd1-b7d2348a20a8/image.png;" parent="1" vertex="1">
          <mxGeometry x="-813" y="1480" width="400" height="300" as="geometry" />
        </mxCell>
        <mxCell id="LjOvlFEaTuc0kCLMJehp-13" value="" style="shape=image;verticalLabelPosition=bottom;labelBackgroundColor=default;verticalAlign=top;aspect=fixed;imageAspect=0;image=https://se.ewi.tudelft.nl/desosa2019/chapters/spring-boot/images/spring-boot/functional_model.PNG;" parent="1" vertex="1">
          <mxGeometry x="-810" y="1800" width="520" height="343" as="geometry" />
        </mxCell>
        <mxCell id="LjOvlFEaTuc0kCLMJehp-14" value="" style="shape=image;verticalLabelPosition=bottom;labelBackgroundColor=default;verticalAlign=top;aspect=fixed;imageAspect=0;image=https://jaehun2841.github.io/2018/08/25/2018-08-18-spring-filter-interceptor/spring-request-lifecycle.jpg;" parent="1" vertex="1">
          <mxGeometry x="-420" y="1190" width="406.96" height="360" as="geometry" />
        </mxCell>
        <mxCell id="LjOvlFEaTuc0kCLMJehp-15" value="" style="shape=image;verticalLabelPosition=bottom;labelBackgroundColor=default;verticalAlign=top;aspect=fixed;imageAspect=0;image=https://user-images.githubusercontent.com/48986787/122791845-8fb83780-d2f4-11eb-9207-9576609c24a5.png;" parent="1" vertex="1">
          <mxGeometry x="-400" y="1570" width="397.22" height="110" as="geometry" />
        </mxCell>
        <mxCell id="LjOvlFEaTuc0kCLMJehp-16" value="" style="shape=image;verticalLabelPosition=bottom;labelBackgroundColor=default;verticalAlign=top;aspect=fixed;imageAspect=0;image=https://prod-acb5.kxcdn.com/wp-content/uploads/2019/09/Spring-Security-Architecture--1024x607.png;" parent="1" vertex="1">
          <mxGeometry x="20" y="1160" width="520" height="308" as="geometry" />
        </mxCell>
        <mxCell id="LjOvlFEaTuc0kCLMJehp-17" value="" style="shape=image;verticalLabelPosition=bottom;labelBackgroundColor=default;verticalAlign=top;aspect=fixed;imageAspect=0;image=data:image/png,iVBORw0KGgoAAAANSUhEUgAAASYAAACsCAMAAADhRvHiAAAA/1BMVEX///9CR6hARafY2Ng8QaY9Q6Y7QKYtM6J4e73w8fh1ebz19fr6+vrz8/NFSqnj5PDr6+tydbtqbbczOaTBw9/l5eUvNqPq6/VNUayur8LU1NRSVZrX19fa2uvMzMxnaravr6+HisRgZLO5ubmAg8HCwsK4uLiYmsyLjsZYXLBVWJaDhsKgotCnp6eTk5PP0OZxc6ODg4OPj4+qrNVbX7GmqNRRVq2anc0AAACztNchKZ/Y5/G61eienp7J3u19fX2fxuAWIJ2TvttPT08rKytubm7AwdnPz93G3u47OztiYmE7P4+en7EuNJOFh6VjZpgAAH8pL5I1OpF1d5yNjqdBAx2HAAAWFElEQVR4nO1dC4OaSLbm3UgDAQwdhnF4P8oFTbpVWKOYTnazmb27s3Nn7/3/v+Wewnc3GrUFzd7+ulUoKCk+65w6p+pQRRCveMUrXvGKV7ziFZdDR19uSR1Jmm8p8BJxCi0tdwE6vcqkiI2V7zog0jpt6hZtWoQuWTQt0ZZOWCZsmSYBu5alwwmWbtJECCfopk5DAh2ainLpojcJ0TI7lh7qlinqutWRIqWkCcjAxCmWBWyZJrDTIfQOcGZCUkc0Tcm/dMmbhSKBUEmiJRGiIoqEhAVKkkRRwhIIjEnlLtQjQlLKM6UyRTEvXfB6IZ4G6Tv74n+YtpKUeiBd+saaAdQGqWzeREKUFglzEcTbOAWLIbzE/1e6exs6KGkda2paAu1N4w1o0UAXKZDeKRMkBWjC9aZz6cJeDqBbFFyPsIpZqx6oTVKZJs7fiHn6pQv7ilcQc3X3Q0F8dxDOfNXwzN9XN25vDoNx3staP5hN+uaGXIBavlEkuZVW4qY6u2LSp8AkpFMzXgYlTRTFsqzMAAwWXniDYjiG4QwO9llqJ02KXplcI6ymLzgHpomSB542QnziJomWID4IeN7lkcsncaIGgTCkdtFEV6YuMWDl42G82fudF7LxMU1MELsoVnMkuLkwQsAPrwZ8ilwVxTESBGMnTfvhMdTxaA/Ofo9nQCl0IGAcx4KU4Q0sbQzLQgpTvtg9QrcfNrtQbPhLAPDBUSxXbpZ7AA5/f7m/OLc9Pvs9ngFrFb4fL6GJCZDtCfYwdodxNswF21Z5wRYCTdW8GGlaJqiup7JXTdNH5iB8POG7VzQhFw3iJE3VUYzSlB+kQZ4KY3fkugMeBcEgjgcuf9U0ETH/HFiHP8EpGmNJE2XIAmuQsmFQsGmQGUnCh2GQkMbBpkxlsrG0Pa6UpirQ52lOVroJDA6KIrGCJuevxQd+X26SPx5N/fN0b9v/OS1dJfzzGLv5HbcL7d1HfjnLtZvAUYNvtzsh7j5C7D62B7Xd8Gk4hib+44HO8xbGp+T6GNR3y8cB924v9fdhXA2XevoZqI0XvG141CRrn5KLkmu77yNRPDjOw0O/73wqnIfikBzexg2XpjUY1ByJTS0ZdrE/LWNTXmZJllmfqLEbN0/NczEVuZjNXNdDk0NbheVbuhnRdHhQ39maJsZVVcRnA89OY4FHSaAFSAh4bZTyvJ3wKR+wFTRR3UQrc3l5rgbIDdQghlwqmKG85wqbua6HJmIx8nQ4VjRRXYQGaZLHCKVqjPgEjG5wo4MYPJMg51EaCDtocue5ciFHfDACUz12geAyVwxkXSVNGMeo8HVtosBTLl1n/I79ZhbvseUfh//XgrYldKXDvfzHueCj9MPZcndTPOu75VNwGk1HYJOmw0Gduaf5pTiGpm7ZMXIkOPukXGR9t1wF0dhpBJdg9h8GdFffNVYrfOfvIXh3QiZefXs2Bm63Y0LEpUbecmZ/uVm5UOTiky3/N8A+PWMr9WY1IvX2FJqSd8/7IOqk6V06Shcov2PyOJl++fXLbDIVncIvQid0IssJo37hh2FIO3458vPL3VLaOVkuawc55JgMb8oG1G0D6lMXJ4M6ZWSq1KxMWcWGC3NvTdNpQqc1K3T82rv8jEvemrYm09mEmE5Ey7QeHNMvfNN3wh4dhU4RFZazSRMlD1A6QHmeoHGgDvI4z1HqjXIUoxx3g+e4Hy1ol31qLoLmfRQwT2naaOkoioHaxkCdY0iq7LsFQAJDzftx1xY1q262dOwyF/UsF7WZ63QVvjZFyJvnQxJPNPEq7BTTVDoEQxfME8+LNbfrBoEnqLYaqChRE49PbBvsFt4OEtIOPDdW4aCr7aGJyrwub3cNVzZUZHQ9dWh7tuZl3STo2rI3FLyhXEETZSDPHspINoRkkUvz7Cxz+aEt25DLW9N0skGwQdPdN/0gKH+5/9YmSRl35DPt0kiRN7o2qMUWCf8Ulrs2w7Vl+MAnUTI4DwxTSRPLZ8lghOI0d6FWxrk7sOOxmwygIsYJypO3CDEVNLHCcJDy6Qi5aQz5krGXjxDkyRFKwM7czHUWmipqUzUkXJu4AckngQBlQbZqpDZyEwFhXyEFMVOFREhcMJyFYZwGfBwnKp/zbsLnQa66CKpUldBlqte1UbftQTUYdo1uZtu2ocmZbMh2V7Yzb9WRuyV0mWrYdsbZuMpBrq5n23KZy/Cy7VzN0lTqJiaV3SQJ4NcX4gwFcR6oSZqoeSCQgwDFLkKIj5McuXwswI4QjxIEPluQJ3kC91hFE4kVC0OR7LI9xDqGXbejO3QTPp/dyFXqp2X7ym50/16CJpKjSncAG0kU/sQeRekesO32XOyY+Tgdt/zAQ2pz/6NahR+BE63wC9C0sywZVB6N9/i9d7KmqcluOf4MNN39EvYPDM7FKnwnTUOsgccxnzC7T1rShHvxWidAJG5PyUbg6NiX0vTG7BGi1HrXmkjvxBaOmlxE4pbBt5vGwb7aROK+MJVlZXnPOUua9MYDH06LSHkmdNPZdPI4fRSnM8LxTafnRH4vDE0wLCNnlWsvTbhnFWtbat85S6GjTwpTMnWC6HROyNixTvtdntE0m03gD+jSFcuJQtOxzJ7lg9sSOutRpTef2y/E55eNcihms1GFp6lw4v3bF+Klg2nOC/MfiRNpujgaDrz/UWlqOIayVqE7d5RzCUtXQIVL8KcoVlMPvZxG02Eq/K6OrmflwS+coijCe8fvh00FnJ7fCt8wDOqgCaw5Sxd1+NRFpTGz64ejaYGHZpXTj0rTX5uN774ITdLitd44Gg0/Rn0Rmr6aZvEQOb2eYzr90O/tv2dR1Z7jaZpdb/DXJWgydSeMTMvqmJEZOaZv7n/W4P3N94f9uDt0zF0fjUqano7ZPoueaFA3WcT7u6yqPj2tXkGd9ekZTY+zxyn8EV8UougoTmGZUWRZpmOGG0bKgTRl+inu/zb+/PVvd9r8CYa94NpazTQt+pjnNOFRusn0lnjUpahwfKvvW45j9YsQ3o+l6Ultwj00k19nk9mtHnZMKdRNs4enAyFCRbIcScedKorug5W9le39jc1SwgH1Ka6vPgFNrEByFHnsyMrxNN1OW7PHyeNk8kgA+07k0w7Y0pHjSz38/smJ+oXlfIKtbZUONDEqU+ug7neBafLGg4zC43TKMeN0x9emCY7aJRbPjs+7Q+ddpIRYzhECf4okScoT3VjSdMgIAVUvTcOxdlRt0k9V4WWTJoo0fo4uxF5rKV2STtDSppw98WevhCbGzVUceFe/QVCERS968O8f/Cgkwn5hRr1PTr/30NOd4t7Ri374NXxwes52riuhibXzER7zq58mEClLl3D7pUshDR6sQluKbtE00VFoXYHN0OzAwe1c10JTmg68Rmg6DddBE9VN89T4IWjaiIpfbsy3qAZoGqrpqFGaJEex+rRlmo5FW2FofqcPckUTJZP4WXQO3hho/WWOo4ZloDxlcGztNBnIbR/V0q1oYuZxW4vYK7zBLGIi5r/yDpocx3kIo09R+BD591Hhf+d5qRVNHHKFOEYoyd1AcFMBIS6NkavG6ihOqNppGqU3J9HEIdlw7W7WxQE36tDrdgV3mHU9wxtm2BA7s9BRWYBiQYhVLedRErt8rMrg7AUufqygPKFeFe4OxtkJQscmoyDN3XTkxqk6cAeJO4rRaITyARoNSiHIzjA1GPbplkJXPpPOsYtH1GELV2L8AHkZ5FIzTSR3c3dKbaIy2esODdsw4MMeZp4xNGSta3hBYBs7ha41AbRm4qRF0HObct7+00tjU9wOhwivpKUjqe4glk9R4ZuRzqsQLKygFmGhlTRNZpPWdDZtPc6InnPv9D5FjtnrhWHfeih69wVYm9a904+KtZ99JTSxoFCaa+mgKt3OwLuDV0iHpmmCXQnWpq6blq6UxqZldTqQuMpxJTRR2WCQkc3QtHhKo5ykb+3hSotEqbJj/P3nq6CJVUejk4TuBJr6BY4GsnCPCR0+hL5imT2f9q0iDKN+BD6e0yN6hdWzHN9xlpneq9wFaGqJrfLp4PLHxK4vnhSnEdcXT9trhpEV9kKfthywL6Uociyd9osQiAkVy4I9MwwLJzI3egHffW6eptZja/o4+TJtzfAe2E2ePUAceVXOytPO+LfCrgDFrUDds9I0bbUeJxOsQ4myNnGxjfCjJO1vxdfDOub007rlaNp09A6thIVOYx8FPBVQ4WJIm2GPtnRHArfF6kFtksCRMZUQqttCkYvK56rYO7Z90+bad/BGnZ2m7d8KCx0fj+bmpVSGoE0mv2LbBiyceRdjxcDjabWpF90/EPe4ue8XkXNv9r/6vSI0/fBTz+o7YBQ4oQkezD1sWL1e9ODcL5+plpS3XPspUdxNd/wGynf75m0s33DU2WjSo/si1HEghx/SDqgDeq7C377tbqjw6WQ2nUynxGw2BdMmvHeKe3DAHL/o+/3eS2g6vJxPEySoVYN2e1NBcTfJWkn44huEq9SJ13sCS+pBhQc9CUw5hVVEXy0eDxnkSN1Q4WD/gXFDiFCnCFr3LQXqvmVaFoiItbiBpmMIpFL4xkMQr9LD5u6YdDN48+8OiHR6x53reosI5nV3M7abDDW9MhX+FNKivO/GriezTIbebx8vwM/5i3jrnut6z1CqcENQmzEIToW0tskrpzbEiX+OznW1CuDey6w58/JEbNBUGZuKneZap4aE2iSrcWr8GEJH7KFpf7zGC4GFbpAOvFqELlOKHl7J4KXYHC2/GE2sN6ipLzzT+0VlX5te/sObriy29mLTIa5kowmamEQt77o5oTN9vdcDx87qWx0wyKxo35jB4+RxOgMz7lGXfLDQCbNck8TywZIHW36eswmaKHnUWEfKHFHY6wE/ZuREEfDlh/tomoKZO3sE50oyw4d+JEKWfp9wwn6v9/DgzMlpROiCcXBsX/hBk11yZ5m55XYxZ0TZHyUu3ogyQENc+l2N0KS9TbXjVDiRqM8hPE3Q6pha8WK6iTLGOXuc0FWimRDkS7V0lBxn6pEtXRWU/zpTkfbjYjQZMRgEL69NitPIMgwXEzpunI6ONC8r0cjTSM7XqtRGVPhwhI6Mb6pEI/PtW5Wi3QRNQBCyf5TaVP0URiMtXXcwONJu2obkWKYVWmZoWlYY1lqplH/c/LMiuRGhc9PxkVb4NszIuveLfhjeO9Z9rU8C0r+x5M2/nqfrRP0dKewYqcwLW7pm1gEJ/8DDBu0PG0kmXpEz9Ds0eHpRfRUK66a7ZHwGu6l+qn76OPcV239amR5i5ICH59OfHOcevMPaLl2qcIb6EWj652pxCe4fq+ZCIiRxuZ5bjeu4zR/toY6Mb6pEzTT9z2raP5Jk/719sSZ00xLXTdPveA7JciZnHJXK/bYVr9mM3XT9NIk/By6VBIkgBGoS8y7ShJ82Dv9INNVoXir/aAcph4I4doduEPP5wPU+bhhQ10XTrUGesHZVCeol8+Njc4nhmPZqNsQ2jkndMKCui6b36zlmj8Ypq/YsYJXmEhsgW8WzX2qaqmbklgGFTdoroqkiXgfPjs+WYallLPIcFVE2p6wBtcB/l1/H5FqcuiPkjrpuPA8Lu+mVU1d1OnjopSma2t/MbTy7cAVNrIYCTetqiPd4PlZt+MFVVcue8/QCmn6aG0zQ0MkGZbAg+POHVDgwM3Vd2ugPrw37apP0tO2qoIlBahLgiPk0T2I0yt1RigYxd9baRIQ38zCvLMlkQwNbuNxt/w6H/KjYGF2pDXuF7umVq4ROZkmDkinDwDPuwZuhaUbVtHIvoYno/FE6Cy6XDAI0KB9hIO9KDa5IekeqLOxZ8WKayPJBrXJecHI5h2nVSS+iidD/zeDFHUC++Wy+Et2zDpUroun0lo58QUuHIf0Mglw+okKVazh8/OnpGddDU0s+mSZGeGlJf9+oytQfz3u1roemy2Ll+5LsbxUle6Vpgf9d9KRs9KNs4JWmJeYGFPdzZb/SK00rYAOqNJcq8ErTGuYfVSMGJRqlqXxCg2jdlmEx0gtnNqsB0s6Zw5qkqTWdPj5OiemsJUaR2Xd6D34/DC0c29arsxiHYycbTdI0mU5+nU6I6VQnLNMP9dCC/zD0fcu/EgncORlv07ppY2WjOq98EiTpKmpTg1c+CZZfODsO1VpYlfmhaFJoelehai3saL3CBPdMxq6Ppj2KoN7Ciis0feWTUPx915HLFfYKaaI/7TzSZDEuf+XWu31ofdt1/Nv2boMlvgRN7z/vX3mnvevA3fZu1lyRL0HTeN37tpzvazUBGLmxsW8VF9zffNdckZsJ7toGpokqF7FjZbz8liyzMt4rp/0iWbzG5Pwgy5Rrb5er/jIMKXOrHc4AatuNlVg/aM3wMwNoooZargYuChCPkJB2B3wQqG4QCHglRXXk5WrixgMbZSPNTRLBDdzEDWykwsdih2mSpvCvjV1qDUxTBvykiZsAR3nMIz4P1BhoE4Qgzl2ElwdMEhdoEeKcV9EoUdMkiN04hZ1BgHcapanppXFKlEI3X9FuvkY2XgSPZeer37Hl/ny5O2++7t18VTxuyK135KwZoTN/Phzfznzt8UHzijzT4Zt75ZBhAzR94OajRuz+QSUM7k9nvvb45pBH9b6PF44LHoIP+xbg2wZ7bppazx7LOxzCRt46nuV7gg/LNYOp+Zzry6lKlyYMtdjEC9Gdm6bvYo8x93Q235rxgePlUoVmHBPIDId35CzjuvAHKtKQDQZvlvvXRNN9v7liAD7IKM5RwOdpMGqDjTJK8erYuRujceyq7gjFaqpCUuwO1Lpp+jJ5fJxNp5MvkkVYtGmGVs+0iHKmPiJ0aN+ynFUdCptd2+9DN+CHYKqpatxNVF4LeE1NDCHQkKB1PVezA1Xt2gIYe5pWM014Rq4vs6k4nYoO7RQPPTqy7nvSg9/vh1LRd/r3/aiMJ5jhNeVnX/Cj+E3hA1dOEcxxLElxbWNzPROSoco1sRdLn7BNCt3ervnJdNJ6/LVFTCdNFQdUOGWkAs9rWhB7sQbGLeJV3vXUHLyG3LMFfiwHSRDwAntVKrxhAE0eihPkpkGSC0GQIJQHKBByl09V8J7iODHiJMaRoo3TJP5591JIYsMtHYP9hXL5a9lrgxPQXgZk48hsLG8MVdpw7Pntpu/iL3vC9BunaWX4c4EmGAkaqp7m2p4daENB9aj6zMsFdvdhftt5ZHGsngJVYMsK59I4jYNxHIwQyF7q5rGxuXp8PTT9srsPc2f35aIH86NdS4kqsEWTTMpDQ5a7smF0DSPLDHnTzayJpre7gmEXnu3G7rNz2FpKVIFtn+55uOkFaKJKZWlg30CW8UzqeF71jCsnVX9KVC0lqsAlXd85ntLEJIHLByiJkZvwYKIICDe7MVJ5sHCf8lRLiSpwfTSxCDhBfBAHbooSZLtqEoMTkAJrWvep7NVSogr86+bgJdZvPnz/607AM6FjSjOEmfdYMuyy05JZznR/CZrEnw5HPXF0O1T4YailRFeJt6f3YXLnm3L26nEb8KdCaKDf8hWveMUrXvGKa8f/AW+oyvyC8PIdAAAAAElFTkSuQmCC;" parent="1" vertex="1">
          <mxGeometry x="30" y="1530" width="478.6" height="280" as="geometry" />
        </mxCell>
        <mxCell id="LjOvlFEaTuc0kCLMJehp-18" value="" style="shape=image;verticalLabelPosition=bottom;labelBackgroundColor=default;verticalAlign=top;aspect=fixed;imageAspect=0;image=https://bezkoder.com/wp-content/uploads/2020/05/spring-boot-jwt-mysql-spring-security-architecture.png;" parent="1" vertex="1">
          <mxGeometry x="30" y="1830" width="377.1" height="190" as="geometry" />
        </mxCell>
        <mxCell id="LjOvlFEaTuc0kCLMJehp-19" value="" style="shape=image;verticalLabelPosition=bottom;labelBackgroundColor=default;verticalAlign=top;aspect=fixed;imageAspect=0;image=https://www2.microstrategy.com/producthelp/Current/LibrarySDK/Content/images/SpringSecArch_2.png;" parent="1" vertex="1">
          <mxGeometry x="520" y="1530" width="368" height="250" as="geometry" />
        </mxCell>
        <mxCell id="LjOvlFEaTuc0kCLMJehp-20" value="" style="shape=image;verticalLabelPosition=bottom;labelBackgroundColor=default;verticalAlign=top;aspect=fixed;imageAspect=0;image=https://soshace.com/wp-content/uploads/2020/12/3_security_filter_chain-879.png;" parent="1" vertex="1">
          <mxGeometry x="414" y="1833" width="375.76" height="310" as="geometry" />
        </mxCell>
        <mxCell id="LjOvlFEaTuc0kCLMJehp-21" value="" style="shape=image;verticalLabelPosition=bottom;labelBackgroundColor=default;verticalAlign=top;aspect=fixed;imageAspect=0;image=https://miro.medium.com/max/1200/0*qK8l7lRxdyVo8Vp9.jpg;" parent="1" vertex="1">
          <mxGeometry x="860" y="20" width="520" height="410" as="geometry" />
        </mxCell>
        <mxCell id="rtksC8M05Lpm6IU32SSg-1" value="" style="shape=image;verticalLabelPosition=bottom;labelBackgroundColor=default;verticalAlign=top;aspect=fixed;imageAspect=0;image=https://blog.kakaocdn.net/dn/lzRjj/btrs3TfA1sT/8RDti71jWRtjmgeoLolzrk/img.png;" vertex="1" parent="1">
          <mxGeometry x="840" y="490" width="520" height="297" as="geometry" />
        </mxCell>
        <UserObject label="https://developer.mozilla.org/ko/docs/Web/HTTP/Messages" link="https://developer.mozilla.org/ko/docs/Web/HTTP/Messages" id="rtksC8M05Lpm6IU32SSg-2">
          <mxCell style="text;whiteSpace=wrap;html=1;" vertex="1" parent="1">
            <mxGeometry x="2070" y="80" width="350" height="40" as="geometry" />
          </mxCell>
        </UserObject>
        <mxCell id="rtksC8M05Lpm6IU32SSg-3" value="" style="shape=image;verticalLabelPosition=bottom;labelBackgroundColor=default;verticalAlign=top;aspect=fixed;imageAspect=0;image=https://nesoy.github.io/assets/posts/20190214/5.png;" vertex="1" parent="1">
          <mxGeometry x="888" y="1190" width="520" height="317" as="geometry" />
        </mxCell>
        <mxCell id="rtksC8M05Lpm6IU32SSg-5" value="" style="shape=image;verticalLabelPosition=bottom;labelBackgroundColor=default;verticalAlign=top;aspect=fixed;imageAspect=0;image=https://d33wubrfki0l68.cloudfront.net/2475489eaf20163ec0f54ddc1d92aa8d4c87c96b/e7c81/images/docs/components-of-kubernetes.svg;" vertex="1" parent="1">
          <mxGeometry x="840" y="900" width="520" height="243" as="geometry" />
        </mxCell>
        <mxCell id="rtksC8M05Lpm6IU32SSg-6" value="" style="shape=image;verticalLabelPosition=bottom;labelBackgroundColor=default;verticalAlign=top;aspect=fixed;imageAspect=0;image=https://www.egovframe.go.kr/wiki/lib/exe/fetch.php?media=egovframework:dev:dep:build:maven2_lifecycle.gif;" vertex="1" parent="1">
          <mxGeometry x="1450" y="133" width="414" height="297" as="geometry" />
        </mxCell>
        <mxCell id="rtksC8M05Lpm6IU32SSg-9" value="" style="shape=image;verticalLabelPosition=bottom;labelBackgroundColor=default;verticalAlign=top;aspect=fixed;imageAspect=0;image=https://docs.axway.com/bundle/axway-open-docs/page/images/oauth/apigw_oauth_web_server_flow.png;" vertex="1" parent="1">
          <mxGeometry x="920" y="1600" width="520" height="341" as="geometry" />
        </mxCell>
        <mxCell id="rtksC8M05Lpm6IU32SSg-10" value="" style="shape=image;verticalLabelPosition=bottom;labelBackgroundColor=default;verticalAlign=top;aspect=fixed;imageAspect=0;image=https://on1ystar.github.io/public/img/socket/socket-1-4.png;" vertex="1" parent="1">
          <mxGeometry x="1864" y="358" width="520" height="458" as="geometry" />
        </mxCell>
        <mxCell id="rtksC8M05Lpm6IU32SSg-11" value="" style="shape=image;verticalLabelPosition=bottom;labelBackgroundColor=default;verticalAlign=top;aspect=fixed;imageAspect=0;image=https://on1ystar.github.io/public/img/socket/socket-1-3.png;" vertex="1" parent="1">
          <mxGeometry x="1460" y="490" width="491" height="520" as="geometry" />
        </mxCell>
        <mxCell id="rtksC8M05Lpm6IU32SSg-12" value="" style="shape=image;verticalLabelPosition=bottom;labelBackgroundColor=default;verticalAlign=top;aspect=fixed;imageAspect=0;image=data:image/png,iVBORw0KGgoAAAANSUhEUgAAAVwAAACRCAMAAAC4yfDAAAACYVBMVEX////P5/VMGQBXnRz/0yCZzP/S6vj/5XlLFwBKFQDo6OjZ3tNYlSNWnhaIhonHv7tui1ZeQDPMzMyAgIDi4uL19fWEkpnL4vBtbGueqK6bq7TF3OmOn6m+vr4AAADX19dIDgB5eHh4X1TCz9zg5OjR1tpeOiuUv+rr59e3ztvXw3abz/+vxNDnwiq1tLTIyMhjY2Nhljdvmk1EAAClpaVGCACQsdLd1M+fn589AACHbWS8qqGlvM5hbXO91p+EtFCKuWRvpzFRIw/O37KCrz6uyodOTk5WLx+ur6NYIgB2otI3SmKu0OdoeYiZxef/+vHt+P91U0VsPifSxbiynZM3PUB9lKfs1XlzYQ9olUK1xMecnZIsMzxri6UeKT6CiH1EaohrWDZATVqZiYFTQSYOECY6XH0vKCggMEYvR3J3bldbgKhcozmAuW1qr1tsoxuIv4FiRyOy2bTF1Ifn672WyZiVu1l5un/c7dafwGzh9eqv3MS71qOf0axZNzqninDO2JTAzXd/qRqRZ0t3pnSVumui0KiGpEmgdFXXvKBtLQCtzJGxlHxzTz+IhnY7NipCPUVObZlgUkIgJ0KGaUyDVkPFzrwSGiNhMRaJZVR5ZWSgspIAABhqd3SPnpoiDwBNUkRTTVcpHixzndNohZpljsBYAABVMDKNhJOMd3WETia2pq/Ko39eRk+ha0SSlKiaWx9xYXdXQU/35dIAACjVz7LOwYc1IAA5PzPMskXcvUIyTl6ngxN5TwhIUxC+lRYvLwhkUwyOgxaWaQxrVQudkhmjeRDTnhUzPgtwSAbjxEx3Ek3+AAAeWklEQVR4nO2diV8T6ZrvK9DUSeINuUD2SkIIhICEkLmESkwqzZ5AFjEL0cmidDINCIi0R2nsdsQexr4iW0vLEZxpW494FO3l9Djao+21u7WXc85fdd+3si9AIAmK8vukKlVvVUHlmyfP+7xrIcie9rSnPaUVO3u96o/w2oov5Gcrzh7d9GLz0awlENF35mb35VN5uF82n5KtUCGvNA93luZe/8//yp/+OQ8GEoILzC/0Ftt+LeEyCvMlxj8Vl+f+hkm4HqHVYzAYBAQF9Vg9BHdLeN8QuBXpPwSbzspE9HT5DoSLen0Gf9dRgeCYGEe9fe/5AsRbCLcs3YcoD9pLqjeVXVpSYl9LvZ603H/pI7CuawbDjfd91q7+93DRAL4F291JuAyINwHxZryTT2akPcRIC5ftMjVJaJupraQNrCVNBcFk6yUt11OmGuRYBIqu497BY33v4ejQ8OsJt7CluZUxchbCIFVY2NzSSu4VhrmD1UgrI7RRCDYYJ8bDUEHKSDO4oJU81spgjL57MnIiY6wzDVx2kEYr2EzUtpICamirUZqUKQK4aINNcUPMOWpze4+jXnHfBz/wrh18PeGeap/4I+NEJ2OkpaWlY7SlpZkxxj59cgRugJSThQA+o/DT9pbWEbhx5jTYmBlnkMng7JOjyPiHSMdISwdjdOJs8whYAOIWgLhlrD2Nzw02hagVNEUZUyXJcNuqY9uN0kTbhZaL8XoDOJfPcXsIFPUQSg7HupUcbSfhnm3pKDwzcfLDjyYmTp/paZ84O9p+qmPko/aJ8Y8n2i8wIPzCj0+/2zEGDhWemjg3PjpxgVEIkj/514n29pGPTn9c0zoBzh776Fwn4+PTE+Mftre3nwTHT6fCZbaFmdKCl5uoTcBBNEnOTzbSaHAryru6Lc6Km1wpcGH0hZIrNLS9tWBsB+GOjJ36hMFoPzny7pmzE83tjNH2TycAvVP/9uEnZz4pbB85zRhpPzkGTvm0HSSfuAB8wYcXwFmMkdNjfyxsb23/uL0dfid/BH+DAS/748f/xvi4E/6hFLhse8RKG9WuSVMwOCUNTjXpg1NfB6fuuoJLJF2qyUSNM2NaGysFbnbaObj/PtF56sLI2ETn2OlPL0xc/KjzVPtHn4xNXJwY/9cLH18YnWidePfUBcaHp2fOTXROnD45enrm3ZZTp8+OnJo5deHT9lF44gmwmjn3CWOi89xZcFn7p+0zE83gz07832S4DRGnUNDIv7T2jXqy2uV4cLl0urvB6bwsmnKETDfOKZCnJpjuJnDRdXdieztouSdmOk+Onjt3rnOm5eLMxfaZs6Pgh3+u89z4WOdM5+hM68gZkNkVjs10gMSZk2CjeQyczBiZOcs4A45fhGfDY62MUfLasU5wDsgiZzpnYnDZLNJzBhsjxCQivWuJOdutdelNTuUltcs155zspoY8LjUBriTB64ZLaJ6wl0UxDK3EwtTAtoIbh1OY4Iojl+x4KBaOFBhnJsYZiYrk/WTswIiLKcIpCSeGtyI7sWiBJTZqy9lsaTTvos3ZHW12ezfV3m1ymBw0u8NknyPhJnkFcGp1vF8I+9x5MrBFMYoXR5VWlCwIo13DKD+8TcEoqOgoKLmhIZtFUUy143DLEwsRIyCqypkY/6TSikg1qMVARnVJLAwDYSxVQqNS4QtshveoaeBSC9QNDQ0R6yXheo29Vq+xD6votS0cxYsFKqNfaezzLLzvrsCO9fq9BovChqKLuOymT7g4YPEsDKxSvH4QZIS+kh2ByxYZeYlwGYxNihCMTUsY8XArlHQoFr1BLB6oELHscVEXlda2TANrKljCb1TTcjq4bSIWSxR1MCDOlfVTeIrPDH6Rz415/eiQwMcP3Kq9Zf3TFfSWpx9T8fzAsNEuC2XIX7G64F60fa4YUAS487jWv1Nw6VqjWJxouYzRccbo2RDAaAGCEaUOlhOtJ5qjBQiwPtExMtZRGDopGXycW6CXiaDp6ZpiyKodpqsOGNK2VTsKTNXLtGoHrXopnVsoAeWI8gS4gdpFxYCQT3gWceAKhoQ2WW9AEYYb4Bt41nm3DVs4iA71LdoW8MXVQcWACkfn/cd2DK4W/FK1SBLczpNjZ0EhoBWWKVoLRy+2FIKyQ2EhLFyAFFB0YIx2gL3Wwha4N9pyogMmFI5cbIYnjq8HN/IvG2PEluzLV+3LJvuURDfnkC7ZS1ZWlmlz6TI0HTsRLgVVGtxWj8GtVgWsoBzBVwhQodImtMpwVMhV2qxKkForc6OorIwjXLjW5xFf8wu4cI/YMZ9rFPeykypuRloutoyfONvcefJEM3C/F1sB3GZgneOFZzrGmlvOMsZagKE2N3cyxjpGYfIYhMsY6ew4AUp2iWzTwGXRItxo0u4203t3HVL7VdqSyTHXbbev2JfblmCxN74MAQtwSiQJLiVchqBwuZGtcIGCgkYLGJRwAWMBRz2fW+NrfnMKt4dZiSCl0XhGIzpEvouURmVyrdhIR0try4nxZmCHzaDgBlatLc2QI/j9dzY3dxS2tI52jI4DuC2MkVAyCfcs+CpA0mZwkbWIX6Ca5pZMSyWOEvvVtqsmYMX27rml7pIVEOom+QXJHD0F7lak4KLc2sSAN6dw51eRGlt0Nxgg4SpLEXZylSN0uKNnyZ/8CeAWRjrBRkvLzDhYdbaSrgGY9DjwD++2jrWSJ86MN4+d7YBXtI7OtLRuBpdVHcnSqGSIAKu+qGSsEFpJaKQ7bovRpRVAw80Cbqpy6xbYbMRVW8PjBFWKoIqgk/VM6lDwuFl9buRoK6yL2eB42mNpasWYGVSKFUQrxQDbpiCSCpeTlYQc4IqBctUIDAxXV1XBY32xxuJBu6WrwzV5GVaWj7RsI/5NW5+rbJNQNyRbQFY5hmyXKolU6CbBzb4FGDYCK3ND11WLTHJuqcrcujJbPNuMWyK2016RviWiVNrUJNlM1GoTTSJpapqLfP5kuFn7BtI75KaJD7DsaSi/LkB0AmC4LHX0K3sFzTxsZlAn3VS6Nak0qIzWlKeBm1TtuA24FblsPw0egi+kVBn3SXce7raUChf1cKye3t6Am6ww9xCUreLNMVx4bwjSIIrf/2dG/pRPuKj3qGFV+T4RagHuX7zmc79yuCC8bYjfY//H/86j1mla34ZS4S5ahNau/zQYbvzZh3f1L+Keha20AG8Al82uykhpWv6VyZ9XWZw/5dMtVArLfF8cV9R2HfcMfNG3uMUW4HXhsitx+ebCcXDWQaIq8VI1K+Wv0fOonHUnTAnFSgOCG9c47xtsN46jyi/7Fn9Q+YgcwK3C5UWbK3KSXBH3AWMh2G5TQq0YtFxuscpAUARCQS3M0BQeoWBLLcDrwJVlgrYo7gsgonTp6l3bMTUOLoZhnEj4te0W4PRwq6LU6urqishXXXiLXIrqktjG6LJ2L9sYXKShWKUy5KYQkQyXjceM02wGC3wzm3E5fkcuN5vlhmEzoCtPtO5K8tL48HbXKQYX2Ii6OHO465+ZCrcyZrjuz4dtR33DFtvnq8O2K72+4+6jFnngCoSLJ7AtwqHFikTILlZ5QtzBJ5FhcTWJ3LhW3/gGYFSBockHarnp4bKJohjc43LOYMDf7z+O99v6fZZ+f/+g2TZ8J8Vwi4rAnSkTwttdp1S4KOo1h+rE0S4cVRLh2hiRH9Vawz6YS0Flf7ZGdlF0CIdrmYEbqjqPwVUbYU5Pj2Gr8wMP4B8uwlctRWAT95vxYXOR3G9OMVzgdRFl7rsh76hS4KIew03cY3Bz+Sr3zUFCSQjLcE/Fau3ioJuPiQyEiGOrXaWg88NeccCqNhA3DKvcMusNA4F6cazMBlvghaqGcMBYLBaLVerSOJusC+dmbks4UwsnpIGLp4a3u0wpcLFbtUPELU7Ac1RIeIcp8+4vOYZbxC1rVx+mUtxSBI5ZhnAu2uCzekpWPUdv+Hr7Ft0mjkVIyAKUIZxHQLhGNdnwrxTxANze4obM4rCk/Tpc+6qg5EopcGUWbEg44FbU3jAehC3A7j7ZTQtGtgCrFBaPoQL3+oWUIT+Kvod3WWR//gwfcpuMfi5WgaNGKw+HcCsiJqc2assT3AJwrUX4bfINvkJvdfjtdJZL7OYojFSqW/AaDIQWFNAMvbgHR72Em8spNhispW6Ug3kDuNrahROYwUr2DVkQr968dtTKEw743G4KqjYYQnAjvjI07C8uEqvDzcNy4GVx/2182C/33zHj5jtFB9NEYkVFnl1cNgspXYYWyrUwLH0LMBpuAYZNxFyMsojDlmIMo0Srf1NDMUWMmB9QvI3L/f7bcjMIcevMq3fCcJNNVw7NX72rs7R0odhmgWxCtMtPKR2nwo35hToc2Oodt9nvv4PfIa1Yfscsdw/DE5JqHwjy0l0djK0PN0OlXpGm+Fu59SztYNgjNOziIlrWcNPgTlNxo1gPaIIjiKN7MPonyndvtrZDcNmKTGw3RvegLHYtXbtbs7Udggv+EZFRhS7peA8qEnCyd2u2tmNwEYRVmYFEIkWlLMVSU5p5dodS4WJcbnxtTe7gZiNRYrZGZ+ZRubvrVLjFHrd6iw07+YeblK0xN++6tV0lDmbI8qZT4HIp2RlufuAmZmtMGhyKkBfRqotz3/pLKq8+dwuCDbBJARibHpetMamb9ovbrqjVZTkrtyTDzYWyhvvwlhDp4SCRVggnFywqAlFH7zUOrqRJQi1I6YMoiQ0bBWqMH6hLa2oKn97UmKZnaP7gagW5kC1ry2XKECfh/ExRo65iqqs0bKZHoz4U1+gTg0u9HlyhUeeaJIAnDY7LBVibJDRdMOigNYEkmExTX2qUUOEOSGr8OhhcocI9WrHzPnm8QCKhRb+LDeF6vwVfcxU91Mkd6QHBeI9LkClculLFy4HKsve5PRWHNLdKK7yc62rOpJIT/ryl4WwtCldy3Rms+ct1TXCqURp03A0GdStrOrDDnw46l4Mra0tN14OOxnuzaysSaXAJnGOfvF4TZH7TCJIlJtF9SZsOfAtrU+eD4VGmG8PVcw71VLDXCIR1iM2q6pH1VNVUZAwXYZfmRNkXWKcJpGetxuD8dm1fme4GEcnM6FrgexPhTgKAmsmp75xBzVL5A43mQc8s85LNqXR2q3tcVyucQef970prpiqcLs3981VO11JpsPT+PbB3+YDyvsSkZTr/Qnz1teZ+JnDJG6tZXNWrbK6AwUkEi7GNzi1/TcNzJfjpKRFnRZXUUOlkBYXhXyLC1hrF5TG4tOq5Nc3lu/rGA8pvDnz7lf7rWfW96QPfTd+b1jG/+e6rAweUfz3w7aXvkK8O8B8ymZcOiP564K5GX/OXSg1T81cA9wDPqdR0/5ezeLYxE7dA/qIQV+V81Zq2clZ7Y3XjD/G6wo2o5/qhxASeWKyKwW3iO/Way21MPTPo1DtXWGvOBw969MxLfKeLeUnknO2+DpLvP5itnF4DKd9cZ+mnvqu5f2+6GOzdD7L0S/ecD+jfAPKXM/K5wOMSCOLCnEa33mhzKtYMu9Jyo0oK6ekqsVgsYhZELVeqW6bR7uocTed13Xd1c1L7vWmpo0mq0y2ZdLqV7qYSXbdE6gAHS3RLVDtIPg/OlVLBXptOBzdXpI7Gb7+KDuQDcAES9ia5BhtxEaH3jfTaw01RefHAgDo2cEYCByrRJOSIJaqEJml8UDPVRJVI4J4ExFxwIJOEHNskIRcamRA6G14LBzM8YH0liYMrKi3u7d0s29BwM7jVXQcXDq0Otq1biKC2LRdstYTR1t0du77aCAerDyhF2Wt31uYlldBo1ILoEFJyLHmS4Ei8hC8ARLy0hP3YJdTqCm0FgMvKRU/fV81pW0qE2zYHp5egQV5wBUc1Qp4F4TkRaLQSh2kO7pHzJRRQJeenaNIl8mxqKCkeNPS5bGVZTps/6MpykUzjAflzEOSA9IbycO9ujS3+LKcQeR1MPQmu6/55V7fJ7qC1zc2BlX1umTY31w035gpK7MsS6X2TTgKOS0rm7GTyiqQNlOvARjfN7rAvUxPh5r5NtOazqjkFmQWuochDG11XG0p/GIrlnKHG2Gk30hCJjZyV6/yp/Ld5JcKlrazoVtp0juv3S6bmliTSJYB5zj7VpHOsTdqnqnXdICK4KjE51i5/PVk9JQEnTkK4wHrtU5Lrk478w+2RykoUarZS2GMsrnzoUzDJUr220mnTHmJqyxfdgL9WEcQAZaaWydFiPYugEBXk87sEiFNb5VTLmHy2XitAmF5bqbpS06XI+S3GlGS5S9Ip6flZu9TRNmdfopnmVhz2Fekl2krj3aW1KftKt32pekWysnLv8vn7jSumlcYDK03UpSZacGVlSQKSkt1CHlrz54u9hkoX3+a0OfuqnIs2p/uRrUKjmDRo9cKgjHcIFEdlat6haXxaWMHscxE9BpBU4lGJbA9twcrraqVBqXdPux/aHtnKvMQkf8fgUu+6lu+6LsOo9bpONyVZAxtS3dpsN1hN3YXB7trU+VkQ1d775vqluy6YPFu95lqhwajXFJxc2gG4s/5Hg4hUQJ8lpjkVh3pUZdi0zcbu4ZXVBt1VD21VSM93bOAuJhU6IX1WEVQ8AkkP+2oAz1lbVY3oOr/LsIYFCaehmBmQ0ZU6Ive3GFVStNBW0NZWQDOB+KytjQpXNLADU4CToJpAdAZUQL7AUkCDG+RxsBSYTG0F+Yfr5NYQiF5bqdGq6Vo++GGr+eBdw3cKNVpRDQfkb3o+s7hqVuHUiryHgoqHIMmpcFaC48VKjVap5HucnGJBsKJCpuWztMqqzf/ltpUEF+xRyTW5hDeoIMNa6qaSB+HxUENDQfgYlRq9groDcHOjHp6omJL3/5JhSwQtNeTdVK8z3Mg0cvlVHpt5aK8z3B0Rc/OZgrcrielth9tgL8mbFiHct/p5IvSy/KmiAaGvaF71J3yVyk1zVKpEYKEjGv3bTTdJuRpqrg+SVVmQ7tvsGRJVmqP6JHZ3N4l3z3bjlCu4iKuxsSDIAgHJHt2ocgaX7qDRGpeDe343TjmDi+gbQUniQJD0DM4c/U1Z1k9DI/WqWjZyB5ftoBVI5uCWxqXLke2Kark5kOJVDcvLHVzgdZskepKqRp8juqLaHHQfRRWqVzRBQg7hspd1mqArQjcnHc1JuKGBkpGRk+F5cWOjKjfF/0bARUCEq9HpSaoaVzAXdEm4fKuMwFS9vatoJUfIRT1wRmcMPhvNGFAYe3v9bwdcKM1KLukCuKhMjHv/u3ZAqCBkCwaDtctnsHHR+f+2yhb8fMGAQLDp09HeHLiJdDVZAoZwu8R9i2Li+4AR73rfLaAMDQoJtMs3cHC+X8Ap+xIkb+YX3iC4MbpBl37ZkV1ZGMIdCgwMLtqOEiBwEHAW/Bi/7EvB99fE7vcMhgXf50TtpgNR3iS4UbosVyOtUZ/Vn4I+d0H4L8PewQGDgRhyCxYNRsGNAZUF8/bPD6oGBTD5bbLcKF1NAQh8HVn9JQhXwfVYMcIjFFqVKoMb06oMhMeKYgSXL7SiMPmtstwwXfbKAVpBQXamC+GisbCLEt0JR2cZTVT8hsEN09U7GiWS6my87ltbiGDTQ5Oahtp26OTCjnRQDHkGtn6uMSvThXCxrEWolK/mgfbbhlujVfIaDEO2RYqL7yV67H7EOYjpLV3h/ocaHVlWA9a7HJsyvaaGVb7vT4+AnJpy1r6aTWvqAVwF+SCCHIiz8z0htw13ehVxKatWKp3ePuShhX21r+dqHzLtrgmE+xtGympsvQZSffTo8eP9+w8f/kNUhw8f3r//MQCd/nnKpCBcRU4GUKKoIv0TtemyTCYFAEqdE2BTbRuuRhpQID23DvXM1QK4LK+BOUQgVznaaBfOsO0ibMA1HmqKDgPE+9LzDcHN3u2GPG+aiWnoxMEMprOAMz8XyeXEVoeObxduDx9xApPtQ3oWucis29mwIJBiPcb4vliALgupebR/I7BRwI+d6fBG4JJxARfDuJSEaa/ACwsnbw+uLGVStrRsI/wT5n7OQNuF+/CWR0/0XF1lI3ohk0OXengNA5XTgwkd3UDh99H+DMiG9DjNzy4MF1W6KcXWeZ9v0IqVgVKDp8JmReEUmbKbPj+ZvD24kamfo5MTx21F3hJnv9paF9TtwmWzWVVIDwv2waLDjSo2nUVnJXfJomfO9g9/eJT6XyJwFwc9Yr9utVaBLfYJCdmAG5QfusQ4ugiSpGDJwHTTwI1M/VxnNpvlZnkdDmdsM4O3IjO5BycsTp5ZbL2O62mVnzg3opqtwJ1OvT6cocm+f/8L8SrP19uHLRhsRMOfbTarbMDY1+DjGAy9IHlbbiE64WCd8fiw0TeI+wZvG/sDw/224f/pu+KGCb4rdUkTDsq34nfzDPdJRh4X6vCTx6nXh+F2DS6KbYGbfuBdawXHjloVgqEfVL7e410+Du/9XpC8LbjR+eDrDFfk/2Ox4BbfbcOwwXJl9YrRfNxvGfQfDVxJmSoz5Bgy6+6RJVxNQ0NDFaIppdMbGmSph2vq33maCd7Dh5/Uv7M/9fow3Plh7yC2oLo20Ocd5Nz84WYfZyEwaJUtEAu+o/g8SN4W3OjUz3L/sBz33wFvRYY+cxHY85uHzf47cKbiFLgH2QhbxBNnNAwxO7g9PG+/i3C5NbeqVgSzqX3iAdx33ql/+mT/BrEYCHefPAWnrQ8XFNK4GKUWq1XUYlqbG5NxbAS0VpCqANECSM4ULkvNi5lc3DSkkZn2D/ZeqUucnzhlGlK5kjcgFouVrPJNxcpukuga2Sxeo7ccQtTsRcqkMD3cd0jAT5882Q9LEXEC+0+ePK2PnLM+XEp0utFYM1r4GdbRRrXN4RpVcIwnK/IcElaCTdYVJSuUkgq3QQ2HUWsz6kGXDVsgKYbM+sH7w4BalOqHonAjqo9T0qGN4WYtALcXjp+NDp9VxltunbkoMRSrk/vXgQsiRpZStRNlaVBEQ6b9SE3ltDvd4RS4G2kTy43jtN52mq8h9kB74BboSlXcwO/YdPu4+TbpXsFr2AwngsdhKBZiiSfZ9MGdqwByBSqRnqCWz5LmGa4gEsoCXxt1saBoFuduUQ8Rwxt+8gEWbacIZ2hxJZVotCA3A4Yg0IUT7pv98ju4vA9uhp9wkmS5Wwp0s1N4iur1upTnCi5KUZHPrEe56JCVIuSioQLxPM4Vhvs0wDndFvEuf2ReaK+f9NKhtzi48fceMV35HTlg6odgcblbfhtsmM1FbnM6v3Dw9ZlsP0dwsQrVD1iZCvfwAmVfWmrdSsMt4obKrVywKPzcigBRxltV4miXhf/lf7qVxlVvb4Dw4t5eP0UW4KpVtnXgIqw408XlOHQGctKE5XAxm8M+I2Hm+NdoJojcwAX2JzOoAyp83iLAhg7K+rz93oDN0w8s909XuvxdtgW3ykqpWsC58/2eBfdnN/uP9Q994SMIcIIs4LGsBzeuGEEudTH3Gnn2URLdunwOb92qonCf1cPXduF2+T2BGxaCX8sPcCHcIN7lW/VYQnBXvasBrkqIz/eBb6FPNkAYVX1eC09lwWo9/ZRSi+cz7npwEdYWa8UaXqde81G4/+/5M3H9j4Dvj89+hEv9s18B8WfPyLQN4AoUQuAWuLDooDUIjhltXL4VE3qsMvcNm5CrtMpwbvEqJqTwa2tvWMG3sIoeG1j1in24muAB/iA709o41nXhko/yy4AuWZ97cMv1uflVFO7Ln3764OVP3/+t/sufX9R///OL3z/48unLFy+fg7TnG8Bli1RGBRqtxIWhAhotOaCRLnqRFYV82hGGevvDJ8cXMdLDhYMrZRmotEFW/rrNXxKz3Bcv/v7L82cv6o8ceV5/5OXzX4588OvLX38DeJ+92AAusF3tlgsRKJbuMX/rwd29ilnui9+PPP3tyK8A7lOw/Pr7kSMA9N9fvPPyyK8bwkXK89rMs5u1cbTw8uenm2RoyB7c9bUx3KSDe3C3pmzjXGQP7vqKg/vbz0eiTuD3v+3BzV5xcH888uPz+l+OHKl/+fOv7/wM3sHr95+PvNiDu13Fwf39p1+eg4is/rcX9R/UF/yt/u8wwv37r/UZwEUb3GqiOLvZ9t9suL89f/bT0w9eAGt99vPvoBjxC7Da379/kQlcCpds59mDm6h4y/3xx/p6sICN+vqn9T/WR/b33MI2tRct5FG5gZujXo57cFPE4uRINt4e3BSxiytyo7I9uKmis3Kk16mmOwfKCdw9pdce3DyKvT9ztvVp+ufuaSPRH2dqu/949Ia5xJ3Qvsf/2Jxv/f5Hr1sL1S4Re9+jx4efrkO4vv4f+x//6U3LyHdWbPo+OBQN9iF98g+oJ7AD6eNHj/bR3+q5NXMrdkyv+lb2tKc97WlPe9rTrtb/B6bBbWHvAspZAAAAAElFTkSuQmCC;" vertex="1" parent="1">
          <mxGeometry x="1654" y="1200" width="456" height="190" as="geometry" />
        </mxCell>
      </root>
    </mxGraphModel>
  </diagram>
  <diagram id="QJYkdgNjQJZI4WRHZ3s0" name="페이지-2">
    <mxGraphModel dx="916" dy="581" grid="1" gridSize="10" guides="1" tooltips="1" connect="1" arrows="1" fold="1" page="1" pageScale="1" pageWidth="827" pageHeight="1169" math="0" shadow="0">
      <root>
        <mxCell id="0" />
        <mxCell id="1" parent="0" />
      </root>
    </mxGraphModel>
  </diagram>
</mxfile>
